<?xml version="1.0" encoding="UTF-8" standalone="no"?>
<svg
   width="280"
   height="280"
   viewBox="0 0 262.5001 262.49997"
   version="1.1"
   id="svg3"
   sodipodi:docname="whole.svg"
   inkscape:version="1.1.2 (0a00cf5339, 2022-02-04)"
   xmlns:inkscape="http://www.inkscape.org/namespaces/inkscape"
   xmlns:sodipodi="http://sodipodi.sourceforge.net/DTD/sodipodi-0.dtd"
   xmlns="http://www.w3.org/2000/svg"
   xmlns:svg="http://www.w3.org/2000/svg">
  <defs
     id="defs7" />
  <sodipodi:namedview
     id="namedview5"
     pagecolor="#ffffff"
     bordercolor="#666666"
     borderopacity="1.0"
     inkscape:pageshadow="2"
     inkscape:pageopacity="0.0"
     inkscape:pagecheckerboard="0"
     inkscape:document-units="px"
     showgrid="true"
     units="px"
     height="256.00002px"
     inkscape:zoom="2.4628595"
     inkscape:cx="55.626397"
     inkscape:cy="115.31311"
     inkscape:window-width="3440"
     inkscape:window-height="1295"
     inkscape:window-x="0"
     inkscape:window-y="32"
     inkscape:window-maximized="1"
     inkscape:current-layer="svg3">
    <inkscape:grid
       type="xygrid"
       id="grid832"
       spacingx="131.25002"
       spacingy="4.6875006" />
  </sodipodi:namedview>
  <path
     id="Imported Path"
     fill="none"
     stroke="#000000"
     stroke-width="1"
     d="m 131.25002,93.750012 c -44.73,0.13 -87.75,17.179998 -120.41,47.729998 0,0 31.32,31.32 31.32,31.32 24.34,-22.27 56.1,-34.67 89.09,-34.8 33.04,0.01 64.89,12.34 89.32,34.58 0,0 31.31,-31.31 31.31,-31.31 -32.75,-30.52 -75.85,-47.499998 -120.63,-47.519998 0,0 0,0 0,0 z" />
  <path
     id="Imported Path-3"
     fill="none"
     stroke="#000000"
     stroke-width="1"
     d="m 131.25002,145.31252 c -30.66998,0.06 -60.229964,11.49 -82.959956,32.08999 0,0 31.279989,31.27998 31.279989,31.27998 14.399994,-12.32 32.729977,-19.09999 51.679967,-19.11999 18.95999,0.02 37.27998,6.79999 51.67998,19.11999 0,0 31.27998,-31.27998 31.27998,-31.27998 -22.72999,-20.59999 -52.28997,-32.02999 -82.95996,-32.08999 0,0 0,0 0,0 z" />
  <path
     id="Imported Path-6"
     fill="none"
     stroke="#000000"
     stroke-width="1"
     d="m 131.25002,196.87503 c -16.59993,0.03 -32.669867,5.88998 -45.379814,16.56993 0,0 31.679874,31.67987 31.679874,31.67987 4.11998,-2.55999 8.85996,-3.93998 13.69994,-3.99998 4.84998,0.06 9.57996,1.43999 13.69994,3.99998 0,0 31.68987,-31.67987 31.68987,-31.67987 -12.71994,-10.67995 -28.78988,-16.53993 -45.38981,-16.56993 0,0 0,0 0,0 z" />
</svg>
